PathFileType	4	(X/Y/Z)	walk-thru1-3-TP.trc
DataRate	CameraRate	NumFrames	NumMarkers	Units	OrigDataRate	OrigDataStartFrame	OrigNumFrames
120.00	120.00	       4	60	mm	120.00	299	       597
Frame#	Time	Top.Head			Front.Head			Rear.Head			Jaw			C7			R.Clavicle			L.Clavicle			R.Shoulder			L.Shoulder			R.Scapula			L.Scapula			R.Scap.Inf			R.Biceps.Lateral			R.Elbow			R.Elbow.Medial			R.Forearm			R.Ulna			R.Radius			R.Wrist			R.Thumb.M1			R.Thumb.M2			R.Thumb.M3			R.Finger3.M1			R.Finger3.M2			R.Finger3.M3			L.Biceps.Lateral			L.Elbow			L.Elbow.Medial			L.Forearm			L.Ulna			L.Radius			L.Wrist			L.Thumb.M1			L.Thumb.M2			L.Thumb.M3			L.Finger3.M1			L.Finger3.M2			L.Finger3.M3			V.Sacral			R.ASIS			L.ASIS			R.Thigh			R.Thigh.Front			R.Knee			R.Knee.Medial			R.Shank			R.Ankle			R.Ankle.Medial			R.Heel			R.Toe			R.MedFoot			L.Thigh			L.Knee			L.Knee.Medial			L.Shank			L.Ankle			L.Ankle.Medial			L.Heel			L.Toe			L.MedFoot			V_mid_ASIS			V_R_Knee_JC			V_L_Knee_JC			V_R_Elbow_JC			V_L_Elbow_JC			V_R_Ankle_JC			V_L_Ankle_JC			V_R_Wrist_JC			V_L_Wrist_JC			V_R_ScaTrpz_1stMC_JC			V_R_1stMC_1stPP_JC			V_R_1stPP_1stDP_JC			V_R_LunCap_3rdMC_JC			V_R_3rdMC_3rdPP_JC			V_R_3rdPP_3rdMP_JC			V_R_3rdMP_3rdDP_JC			V_L_ScaTrpz_1stMC_JC			V_L_1stMC_1stPP_JC			V_L_1stPP_1stDP_JC			V_L_LunCap_3rdMC_JC			V_L_3rdMC_3rdPP_JC			V_L_3rdPP_3rdMP_JC			V_L_3rdMP_3rdPP_JC			V_ROOT_JC			V_R_Hip_JC			V_L_Hip_JC			V_R_GlenHum_JC			V_L_GlenHum_JC			V_ForeHead_Ctr			V_Vertex			V_Sagit_Lambdoid_Suture			V_R_FrontoTemp			V_L_FrontoTemporal			V_R_ParietalOccip			V_L_ParietalOcciptal			V_R_Temporal			V_L_Temporal			V_mid_FrontRearHead			V_mid_RLGlenHumCtrs			V_C7_vert			V_C1_vert			V_Mid_Hip			
		X1	Y1	Z1	X2	Y2	Z2	X3	Y3	Z3	X4	Y4	Z4	X5	Y5	Z5	X6	Y6	Z6	X7	Y7	Z7	X8	Y8	Z8	X9	Y9	Z9	X10	Y10	Z10	X11	Y11	Z11	X12	Y12	Z12	X13	Y13	Z13	X14	Y14	Z14	X15	Y15	Z15	X16	Y16	Z16	X17	Y17	Z17	X18	Y18	Z18	X19	Y19	Z19	X20	Y20	Z20	X21	Y21	Z21	X22	Y22	Z22	X23	Y23	Z23	X24	Y24	Z24	X25	Y25	Z25	X26	Y26	Z26	X27	Y27	Z27	X28	Y28	Z28	X29	Y29	Z29	X30	Y30	Z30	X31	Y31	Z31	X32	Y32	Z32	X33	Y33	Z33	X34	Y34	Z34	X35	Y35	Z35	X36	Y36	Z36	X37	Y37	Z37	X38	Y38	Z38	X39	Y39	Z39	X40	Y40	Z40	X41	Y41	Z41	X42	Y42	Z42	X43	Y43	Z43	X44	Y44	Z44	X45	Y45	Z45	X46	Y46	Z46	X47	Y47	Z47	X48	Y48	Z48	X49	Y49	Z49	X50	Y50	Z50	X51	Y51	Z51	X52	Y52	Z52	X53	Y53	Z53	X54	Y54	Z54	X55	Y55	Z55	X56	Y56	Z56	X57	Y57	Z57	X58	Y58	Z58	X59	Y59	Z59	X60	Y60	Z60	

299	2.483	272.17392	-65.47613	1776.15662	169.21216	-48.42381	1659.12561	402.63840	-70.10535	1698.39380	253.23157	-52.01339	1481.15588	490.62885	-61.17606	1572.54309	391.17899	66.14960	1499.20142	381.09711	-177.39302	1476.21484	447.28134	169.94057	1493.31262	424.20187	-283.56284	1471.34973	556.39807	38.58137	1486.18799	554.43994	-154.44501	1471.14343	586.65985	42.83441	1396.44397	487.38855	206.08006	1354.09583	555.10980	236.24631	1173.52686	548.36389	139.38094	1162.31799	461.10977	236.35480	1105.35144	520.27820	241.10199	972.13135	409.80847	235.42177	938.65204	408.83093	283.81946	915.73676	387.37280	237.27486	892.72009	376.47339	222.34575	844.13666	369.56082	232.04549	792.39447	386.12946	312.13712	840.71625	413.35168	277.76749	772.96039	440.51593	224.49696	797.14148	482.42572	-308.49841	1326.03979	548.57538	-318.27069	1158.13184	563.56818	-223.26132	1137.50977	470.56653	-316.13953	1071.97681	537.62115	-335.86371	971.36212	446.89282	-311.53943	908.10773	469.21274	-352.86725	875.06006	427.77652	-308.32834	849.99573	414.17783	-282.65216	804.76624	408.72794	-283.12805	754.38708	451.20062	-360.69455	773.49390	456.83185	-326.77530	716.97180	469.99475	-265.79370	721.34100	601.37280	-49.38710	1119.84216	417.38037	151.75081	1064.84314	402.79446	-198.26054	1063.04773	432.74155	155.15817	681.27686	353.83713	91.52415	563.30450	420.97870	142.82845	514.70557	411.29874	26.66164	508.73724	523.26758	101.63521	316.62408	726.45154	123.30681	174.80679	689.00366	23.04757	180.76936	791.62531	65.34355	174.79857	612.29376	79.70735	50.52988	630.19470	55.25040	110.77100	387.55624	-192.70596	677.37830	362.42957	-163.77997	537.92114	377.97073	-55.74282	521.25433	353.89578	-115.14210	328.35284	450.02295	-121.51492	80.64252	401.97238	-32.68636	113.67699	487.27423	-50.98050	48.52511	266.89832	-116.89423	44.82584	330.67313	-72.60663	87.55292																																																																																																																															
300	2.492	266.99414	-68.30823	1776.17871	163.67957	-49.48717	1658.98535	395.69342	-72.46880	1698.62488	247.83459	-52.87094	1481.26819	485.33032	-62.63465	1572.29626	386.76416	65.36109	1499.66138	375.06949	-177.76628	1476.46277	443.62338	169.75163	1493.54480	418.75421	-283.17377	1471.04150	551.67224	37.99341	1486.35779	549.37842	-155.14032	1470.97510	581.78125	41.72077	1396.32178	484.40601	203.73628	1354.87195	551.09534	235.12094	1173.85608	544.60675	138.30765	1163.08459	457.71542	233.61063	1105.53503	517.77167	239.35193	971.87982	407.68497	232.38480	937.16046	405.11050	281.56354	916.02759	387.50143	234.74210	890.86224	373.88327	220.63902	839.37054	370.71323	233.93172	789.81946	383.45865	312.64523	841.81555	413.09729	280.66388	772.78400	438.47586	227.93494	797.00958	475.38495	-309.77130	1326.04468	541.69421	-319.98859	1158.12134	556.93213	-225.57130	1138.16858	463.38797	-317.06210	1071.96143	530.16431	-338.17664	971.51965	440.44107	-312.37869	908.04572	461.29352	-354.00882	875.70831	420.03189	-309.15747	850.61993	406.47192	-282.25134	805.09320	401.65988	-282.97974	755.74646	443.61835	-360.72803	774.15668	449.18021	-327.66455	716.84839	459.33929	-268.70160	721.24841	596.63342	-50.69452	1120.76599	412.68524	151.43297	1065.14429	397.85233	-199.36403	1063.03528	423.84091	155.50389	682.61163	343.32632	91.89130	564.09204	409.76697	142.51712	515.76056	400.75195	26.64149	510.56250	513.51617	100.92385	317.14270	717.04352	124.20144	177.84230	680.00708	24.00980	183.14273	781.82452	65.30793	177.36874	603.00201	82.45131	53.58637	620.32361	57.53601	113.10533	383.73236	-193.75502	677.21075	361.39233	-164.36018	537.54340	374.37750	-56.90557	520.64844	353.17926	-115.97034	328.42468	449.88324	-121.89291	80.82905	402.11499	-33.23582	113.58332	487.16882	-50.81086	48.74874	267.07236	-116.61907	44.48634	330.40668	-72.77272	87.39161																																																																																																																															
301	2.500	260.87189	-67.71986	1776.45740	157.03610	-50.14644	1658.50684	390.02695	-73.63905	1699.41113	242.68102	-53.61922	1481.01123	480.24884	-65.50075	1572.03894	381.35162	64.18536	1499.72083	369.33652	-179.16206	1476.17151	438.63913	167.84351	1493.23364	411.96326	-284.93799	1472.15308	546.59229	35.43618	1486.50146	544.11285	-156.20583	1471.86731	576.41156	40.42464	1396.93298	481.38306	202.95013	1354.64709	547.96918	233.69815	1173.70911	541.30005	136.85228	1163.28223	453.29068	232.06029	1105.71350	513.97046	238.88890	972.20776	405.47711	230.34393	937.29913	402.61816	279.99756	916.58490	384.55884	232.86546	890.05865	375.31915	220.32283	838.20258	372.54614	234.58580	787.91718	381.53494	312.67056	842.53064	411.74115	282.64914	772.74371	437.24506	227.66130	800.05280	468.63217	-310.92511	1326.03235	535.10828	-321.48553	1158.33142	551.10083	-226.99088	1138.60608	455.66064	-317.98840	1072.62122	522.89075	-339.85086	971.14905	433.43185	-313.78394	907.55835	453.69922	-355.84192	876.00586	412.81137	-311.00650	851.23041	400.58618	-282.25961	805.45355	395.28168	-283.50378	755.60736	436.33704	-362.58835	774.13062	442.17050	-328.68161	717.24603	452.54562	-270.25790	721.29816	592.47009	-50.73533	1120.50928	407.66962	150.34589	1065.64844	394.32617	-199.62297	1063.04834	415.74728	154.90981	683.22406	333.07825	91.81290	566.32666	399.57239	143.45181	516.98944	389.70764	26.78658	510.29773	503.48837	101.09675	318.45944	707.60760	125.08665	180.21797	669.79987	23.72146	185.41336	772.05688	66.00780	179.47285	593.41650	84.89937	55.44519	610.44727	58.88380	114.70020	381.77036	-194.15030	676.89655	359.02448	-165.42035	537.16119	372.45248	-57.13912	520.73053	352.29498	-116.63165	327.94278	449.98764	-122.01792	80.84319	402.11499	-33.23582	113.58332	487.19095	-50.92560	48.99972	267.27280	-116.73508	44.51823	330.40668	-72.77272	87.39161																																																																																																																															
302	2.508	254.95705	-67.52736	1775.14478	152.09915	-50.19710	1657.70837	384.13809	-73.63323	1698.99890	238.48164	-54.10387	1480.43176	474.38425	-62.48207	1573.39026	377.46951	63.45709	1499.77112	364.48053	-179.81151	1475.93872	434.23947	167.04720	1493.97522	406.08578	-286.33301	1471.97791	541.96613	34.19226	1487.27417	538.56384	-157.72969	1472.11951	572.69745	37.97761	1397.05627	477.04645	201.48708	1354.86707	544.07813	231.82674	1174.07397	538.30603	135.81345	1163.50818	450.47198	230.31638	1106.03931	511.31677	238.07944	972.42548	402.74039	229.30475	937.70624	399.54352	278.44107	916.36005	384.10962	231.25998	888.32599	375.32611	219.64679	835.34418	376.49319	231.95436	785.14862	380.13614	310.67148	841.64642	413.37875	283.06021	772.62372	433.91772	228.69855	799.96356	462.11612	-311.85205	1326.13562	528.37408	-323.45209	1158.00220	546.94757	-229.29910	1137.46082	450.18646	-318.06256	1072.39282	515.98474	-341.44983	971.06628	426.14700	-314.98981	907.84363	447.02835	-357.59579	875.70776	405.93863	-311.93335	851.01672	393.02884	-284.04877	805.88196	389.05780	-284.70404	756.16718	429.30057	-364.41733	774.82764	434.32431	-330.08221	717.29163	446.17957	-272.43140	721.75421	587.34222	-51.67229	1120.58301	402.83441	149.06070	1065.90698	389.28970	-201.16963	1062.80017	406.72501	155.07385	684.83557	324.40594	93.38425	568.54041	389.49402	144.02356	517.54156	381.20551	26.68855	512.08813	493.00546	102.57281	319.49747	696.98541	126.16319	181.82491	659.95691	24.80642	186.08220	762.46100	67.79508	181.22069	582.87616	86.48637	57.33278	600.48853	60.34406	116.76339	379.64807	-195.14539	676.58057	358.03339	-165.61180	536.93237	370.64828	-58.12652	520.54230	351.74954	-117.43359	327.64160	450.00876	-122.21753	80.83856	402.14301	-33.46920	113.76305	487.36597	-50.74619	49.03441	267.33765	-116.89526	44.26544	330.64920	-73.06313	87.34357																																																																																																																															
